<svg xmlns="http://www.w3.org/2000/svg" width="124" height="124" viewBox="0 0 124 124">
  <g id="Group_525" data-name="Group 525" transform="translate(-110.898 -2472)">
    <rect id="Rectangle_252" data-name="Rectangle 252" width="124" height="124" rx="62" transform="translate(110.898 2472)" fill="#001628"/>
    <rect id="Rectangle_253" data-name="Rectangle 253" width="43.999" height="1.144" transform="translate(138.757 2510.272)" fill="#00b6ac"/>
    <g id="Group_516" data-name="Group 516" transform="translate(141.212 2503.991)">
      <path id="Path_362" data-name="Path 362" d="M165.671,2531.5a1.8,1.8,0,1,1,1.8-1.8A1.8,1.8,0,0,1,165.671,2531.5Zm0-2.453a.654.654,0,1,0,.655.655A.655.655,0,0,0,165.671,2529.049Z" transform="translate(-163.872 -2527.904)" fill="#fff"/>
      <path id="Path_363" data-name="Path 363" d="M173.335,2531.5a1.8,1.8,0,1,1,1.8-1.8A1.8,1.8,0,0,1,173.335,2531.5Zm0-2.453a.654.654,0,1,0,.654.655A.655.655,0,0,0,173.335,2529.049Z" transform="translate(-167.15 -2527.904)" fill="#fff"/>
      <path id="Path_364" data-name="Path 364" d="M181,2531.5a1.8,1.8,0,1,1,1.8-1.8A1.8,1.8,0,0,1,181,2531.5Zm0-2.453a.654.654,0,1,0,.654.655A.655.655,0,0,0,181,2529.049Z" transform="translate(-170.429 -2527.904)" fill="#fff"/>
    </g>
    <g id="Group_517" data-name="Group 517" transform="translate(142.206 2514.871)">
      <path id="Path_365" data-name="Path 365" d="M186.061,2565.333h-2.154a.858.858,0,1,1,0-1.717h2.154a.858.858,0,1,1,0,1.717Z" transform="translate(-173.068 -2554.061)" fill="#fff"/>
      <path id="Path_366" data-name="Path 366" d="M200.426,2573.435h-7.384a.858.858,0,0,1,0-1.717h7.384a.858.858,0,0,1,0,1.717Z" transform="translate(-176.976 -2557.527)" fill="#fff"/>
      <path id="Path_367" data-name="Path 367" d="M200.426,2581.542h-7.384a.858.858,0,0,1,0-1.717h7.384a.858.858,0,0,1,0,1.717Z" transform="translate(-176.976 -2560.995)" fill="#fff"/>
      <path id="Path_368" data-name="Path 368" d="M200.606,2565.333h-7.143a.858.858,0,1,1,0-1.717h7.143a.858.858,0,1,1,0,1.717Z" transform="translate(-177.156 -2554.061)" fill="#fff"/>
      <path id="Path_369" data-name="Path 369" d="M200.606,2552.174h-7.143a.858.858,0,0,1,0-1.717h7.143a.858.858,0,0,1,0,1.717Z" transform="translate(-177.156 -2548.432)" fill="#fff"/>
      <path id="Path_370" data-name="Path 370" d="M212.021,2573.435h-18.98a.858.858,0,0,1,0-1.717h18.98a.858.858,0,0,1,0,1.717Z" transform="translate(-176.976 -2557.527)" fill="#fff"/>
      <path id="Path_371" data-name="Path 371" d="M220.869,2565.333h-7.143a.858.858,0,1,1,0-1.717h7.143a.858.858,0,1,1,0,1.717Z" transform="translate(-185.824 -2554.061)" fill="#fff"/>
      <path id="Path_372" data-name="Path 372" d="M220.869,2552.174h-7.143a.858.858,0,0,1,0-1.717h7.143a.858.858,0,0,1,0,1.717Z" transform="translate(-185.824 -2548.432)" fill="#fff"/>
      <path id="Path_373" data-name="Path 373" d="M186.061,2589.65h-2.154a.858.858,0,0,1,0-1.717h2.154a.858.858,0,0,1,0,1.717Z" transform="translate(-173.068 -2564.463)" fill="#fff"/>
      <path id="Path_374" data-name="Path 374" d="M206.5,2589.65H193.462a.858.858,0,0,1,0-1.717H206.5a.858.858,0,0,1,0,1.717Z" transform="translate(-177.156 -2564.463)" fill="#fff"/>
      <path id="Path_375" data-name="Path 375" d="M174.12,2552.685a.859.859,0,0,1-.746-1.282l2.3-4.049a.859.859,0,0,1,1.494.847l-2.3,4.049A.859.859,0,0,1,174.12,2552.685Z" transform="translate(-168.882 -2546.918)" fill="#fff"/>
      <path id="Path_376" data-name="Path 376" d="M168.454,2552.676a.854.854,0,0,1-.607-.252l-1.987-1.987a.859.859,0,0,1,0-1.214l1.987-1.987a.858.858,0,0,1,1.214,1.214l-1.38,1.38,1.38,1.38a.859.859,0,0,1-.607,1.466Z" transform="translate(-165.608 -2546.947)" fill="#fff"/>
      <path id="Path_377" data-name="Path 377" d="M182.316,2552.676a.859.859,0,0,1-.607-1.466l1.38-1.38-1.38-1.38a.858.858,0,0,1,1.214-1.214l1.987,1.987a.859.859,0,0,1,0,1.214l-1.987,1.987A.856.856,0,0,1,182.316,2552.676Z" transform="translate(-172.388 -2546.947)" fill="#fff"/>
    </g>
    <path id="Path_378" data-name="Path 378" d="M218.732,2567.344h-57.74a3.374,3.374,0,0,1-3.37-3.371v-40.622a3.374,3.374,0,0,1,3.37-3.371h57.74a3.374,3.374,0,0,1,3.37,3.371v40.622A3.374,3.374,0,0,1,218.732,2567.344Zm-57.74-45.646a1.655,1.655,0,0,0-1.653,1.654v40.622a1.655,1.655,0,0,0,1.653,1.654h57.74a1.655,1.655,0,0,0,1.653-1.654v-40.622a1.655,1.655,0,0,0-1.653-1.654Z" transform="translate(-19.987 -20.524)" fill="#00b6ac"/>
    <path id="Path_379" data-name="Path 379" d="M216.108,2609.889H193.9a.858.858,0,0,1,0-1.717h2.546a1.8,1.8,0,0,0,1.8-1.8v-5.345a.858.858,0,1,1,1.717,0v5.345a3.5,3.5,0,0,1-.5,1.8H210.54a3.5,3.5,0,0,1-.5-1.8v-5.764a.858.858,0,1,1,1.717,0v5.764a1.8,1.8,0,0,0,1.8,1.8h2.546a.858.858,0,0,1,0,1.717Z" transform="translate(-35.138 -54.645)" fill="#00b6ac"/>
    <g id="Group_520" data-name="Group 520" transform="translate(181.898 2507.362)">
      <g id="Group_518" data-name="Group 518" transform="translate(0)">
        <path id="Path_380" data-name="Path 380" d="M272.135,2563.907H238.061a1.557,1.557,0,0,1-1.59-1.522v-25.567a1.557,1.557,0,0,1,1.59-1.523h34.074a1.557,1.557,0,0,1,1.59,1.523v25.567A1.557,1.557,0,0,1,272.135,2563.907Z" transform="translate(-235.613 -2534.438)" fill="#001628"/>
        <path id="Path_381" data-name="Path 381" d="M271.493,2564.124H237.42a2.418,2.418,0,0,1-2.449-2.38v-25.567a2.419,2.419,0,0,1,2.449-2.381h34.074a2.419,2.419,0,0,1,2.449,2.381v25.567A2.418,2.418,0,0,1,271.493,2564.124Zm-34.074-28.611a.7.7,0,0,0-.732.664v25.567a.7.7,0,0,0,.732.664h34.074a.7.7,0,0,0,.732-.664v-25.567a.7.7,0,0,0-.732-.664Z" transform="translate(-234.971 -2533.796)" fill="#fff"/>
      </g>
      <g id="Group_519" data-name="Group 519" transform="translate(13.03 5.92)">
        <path id="Path_382" data-name="Path 382" d="M264.2,2557.052a6.455,6.455,0,1,1,6.455-6.456A6.463,6.463,0,0,1,264.2,2557.052Zm0-11.194a4.739,4.739,0,1,0,4.739,4.738A4.743,4.743,0,0,0,264.2,2545.858Z" transform="translate(-257.741 -2544.141)" fill="#00b6ac"/>
        <path id="Path_383" data-name="Path 383" d="M265.837,2556.369a.856.856,0,0,1-.607-.252l-1.52-1.52a.858.858,0,0,1,1.214-1.214l.914.914,2.524-2.525a.858.858,0,0,1,1.214,1.214l-3.131,3.131A.855.855,0,0,1,265.837,2556.369Z" transform="translate(-260.186 -2547.298)" fill="#00b6ac"/>
        <path id="Path_384" data-name="Path 384" d="M268.987,2578.543h-3.1a.572.572,0,0,1,0-1.145h3.1a.572.572,0,0,1,0,1.145Z" transform="translate(-260.979 -2558.367)" fill="#00b6ac"/>
      </g>
    </g>
    <g id="Group_524" data-name="Group 524" transform="translate(127.519 2529.907)">
      <g id="Group_523" data-name="Group 523" transform="translate(0 0)">
        <g id="Group_521" data-name="Group 521">
          <path id="Path_385" data-name="Path 385" d="M159.827,2607.956H143.293a1.811,1.811,0,0,1-1.849-1.77v-29.724a1.81,1.81,0,0,1,1.849-1.77h16.534a1.811,1.811,0,0,1,1.849,1.77v29.724A1.811,1.811,0,0,1,159.827,2607.956Z" transform="translate(-140.585 -2573.835)" fill="#001628"/>
          <path id="Path_386" data-name="Path 386" d="M159.185,2608.173H142.651a2.672,2.672,0,0,1-2.708-2.628v-29.724a2.672,2.672,0,0,1,2.708-2.628h16.534a2.671,2.671,0,0,1,2.707,2.628v29.724A2.671,2.671,0,0,1,159.185,2608.173Zm-16.534-33.263a.955.955,0,0,0-.991.911v29.724a.955.955,0,0,0,.991.911h16.534a.954.954,0,0,0,.991-.911v-29.724a.954.954,0,0,0-.991-.911Z" transform="translate(-139.943 -2573.193)" fill="#fff"/>
        </g>
        <g id="Group_522" data-name="Group 522" transform="translate(5.506 8.844)">
          <path id="Path_387" data-name="Path 387" d="M155.033,2599.587a5.469,5.469,0,1,1,5.469-5.469A5.475,5.475,0,0,1,155.033,2599.587Zm0-9.221a3.752,3.752,0,1,0,3.752,3.752A3.757,3.757,0,0,0,155.033,2590.366Z" transform="translate(-149.564 -2588.649)" fill="#00b6ac"/>
          <path id="Path_388" data-name="Path 388" d="M156.384,2599.024a.855.855,0,0,1-.607-.252l-1.253-1.252a.858.858,0,0,1,1.214-1.214l.646.646,1.973-1.973a.858.858,0,0,1,1.214,1.214l-2.58,2.579A.854.854,0,0,1,156.384,2599.024Z" transform="translate(-151.578 -2591.25)" fill="#00b6ac"/>
        </g>
        <path id="Path_389" data-name="Path 389" d="M159.149,2625.169h-3.61a.572.572,0,0,1,0-1.145h3.61a.572.572,0,0,1,0,1.145Z" transform="translate(-146.37 -2594.937)" fill="#00b6ac"/>
      </g>
    </g>
  </g>
</svg>
